<?xml version="1.0" encoding="UTF-8" standalone="no"?>
<!-- Generator: Adobe Illustrator 26.5.0, SVG Export Plug-In . SVG Version: 6.00 Build 0)  -->

<svg
   version="1.1"
   id="Layer_1"
   x="0px"
   y="0px"
   viewBox="0 0 152.16 174.50001"
   xml:space="preserve"
   sodipodi:docname="logo-lbc - Cópia.svg"
   width="152.16"
   height="174.5"
   inkscape:version="1.1.1 (3bf5ae0d25, 2021-09-20)"
   xmlns:inkscape="http://www.inkscape.org/namespaces/inkscape"
   xmlns:sodipodi="http://sodipodi.sourceforge.net/DTD/sodipodi-0.dtd"
   xmlns="http://www.w3.org/2000/svg"
   xmlns:svg="http://www.w3.org/2000/svg"><defs
   id="defs85" /><sodipodi:namedview
   id="namedview83"
   pagecolor="#ffffff"
   bordercolor="#666666"
   borderopacity="1.0"
   inkscape:pageshadow="2"
   inkscape:pageopacity="0.0"
   inkscape:pagecheckerboard="0"
   showgrid="false"
   inkscape:zoom="2.8284271"
   inkscape:cx="18.73833"
   inkscape:cy="105.88924"
   inkscape:window-width="1920"
   inkscape:window-height="1009"
   inkscape:window-x="1912"
   inkscape:window-y="-8"
   inkscape:window-maximized="1"
   inkscape:current-layer="g80"
   width="130px"
   height="174.5px" />
<style
   type="text/css"
   id="style2">
	.st0{clip-path:url(#SVGID_00000061443119748868786220000016973059072902466985_);}
	.st1{clip-path:url(#SVGID_00000166639391774248716870000017262230670942466714_);fill:#067A96;}
	.st2{fill:#67C0C2;}
	.st3{fill:#067A96;}
</style>
<g
   id="g80">
	
	<path
   class="st2"
   d="m 7.8,64.5 c 6.9,24.3 24,44.7 46.8,56.9 1,0.5 2,1 3,1.5 0.2,0.1 0.5,0.2 0.8,0.3 C 52.8,117 48.1,107.8 46.5,93.7 45.9,88.7 45.9,84.9 46,82.9 46.4,61 55.8,47.9 62.9,42 72.7,33.6 84,32.9 88.8,33 c 8.5,0.2 16.8,3.2 23.3,8.4 2,1.6 3.8,3.5 5.6,5.3 0,-0.1 -0.1,-0.2 -0.2,-0.2 0.1,0.2 0.3,0.3 0.4,0.5 3.6,3.8 7.4,7.3 13.2,8.1 0.7,0.1 1.4,0.1 2.1,0.2 6.8,0.1 12.8,-3.2 16.1,-8.2 1.7,-2.6 2.7,-5.6 2.8,-8.8 0.1,-3.2 -1,-6.3 -2.7,-9.2 -0.2,-0.3 -0.6,-1 -0.7,-1.1 -5,-7.5 -14.6,-13.5 -21.6,-17.3 C 115.1,4.2 101.4,0.7 87.6,0.4 52.9,-0.2 33.3,17.9 25.4,26.7 c -1.1,1.2 -2.2,2.5 -3.2,3.7 -6,7.4 -10.1,15.1 -12.8,22.3 -1,2.7 -1.9,5.3 -2.5,7.8 0.1,1.2 0.5,2.6 0.9,4 z"
   id="path24" />
	<path
   class="st3"
   d="m 151.1,132.7 c -0.3,-0.9 -0.8,-1.8 -1.2,-2.7 -3.2,-5.5 -9.6,-9.3 -17,-9.3 -1,0 -1.9,0.1 -2.9,0.2 -5.5,0.7 -8.9,3.6 -12.1,6.7 -0.6,0.6 -1.1,1.3 -1.8,1.9 0.1,-0.2 0.2,-0.3 0.4,-0.5 -1.9,1.9 -3.7,3.8 -6,5.4 -6.8,4.8 -15.1,7.1 -23.7,7.1 -4.4,0 -8.2,-0.6 -11.3,-1.4 v 0 0 0.1 c -6.9,-1.7 -13.5,-4.1 -19.7,-7.1 -1,-0.5 -2.1,-1 -3.1,-1.5 C 29.4,119.6 11.8,99.5 4.8,75.6 4.2,73.5 3.7,71.4 3.2,69.3 0.8,78.7 0.5,86.5 0.5,91.1 c 0,6.9 0.7,24.3 9.3,41.4 1.8,2.7 3.4,5.5 4.9,8.4 7.1,10.5 17.8,20.3 33.8,26.8 10,4 19.7,5.6 26.9,6.3 3.6,0.3 6.5,0.4 8.6,0.4 14.6,0 29,-3.4 41.7,-10 10.8,-5.5 26.3,-13.6 26.3,-26.4 0,-1.9 -0.3,-3.6 -0.9,-5.3 z"
   id="path26" />
	
	
</g>
</svg>
