<?xml version="1.0" encoding="utf-8"?>
<!-- Generator: Adobe Illustrator 26.5.0, SVG Export Plug-In . SVG Version: 6.00 Build 0)  -->
<svg version="1.1" id="Layer_1" xmlns="http://www.w3.org/2000/svg" xmlns:xlink="http://www.w3.org/1999/xlink" x="0px" y="0px"
	 viewBox="0 0 939.4 175.4" style="enable-background:new 0 0 939.4 175.4;" xml:space="preserve">
<style type="text/css">
	.st0{clip-path:url(#SVGID_00000061443119748868786220000016973059072902466985_);}
	.st1{clip-path:url(#SVGID_00000166639391774248716870000017262230670942466714_);fill:#067A96;}
	.st2{fill:#67C0C2;}
	.st3{fill:#067A96;}
</style>
<g>
	<g>
		<defs>
			<polygon id="SVGID_1_" points="0,175.4 451.4,175.4 451.4,0.5 0,0.5 0,175.4 			"/>
		</defs>
		<clipPath id="SVGID_00000183934537315521133310000003042864022658584508_">
			<use xlink:href="#SVGID_1_"  style="overflow:visible;"/>
		</clipPath>
		<g style="clip-path:url(#SVGID_00000183934537315521133310000003042864022658584508_);">
			<defs>
				<polygon id="SVGID_00000116209624305644399500000009174852860885564581_" points="0,175.4 451.4,175.4 451.4,0.5 0,0.5 0,175.4 
									"/>
			</defs>
			<clipPath id="SVGID_00000155866912834879835510000004066962711123223693_">
				<use xlink:href="#SVGID_00000116209624305644399500000009174852860885564581_"  style="overflow:visible;"/>
			</clipPath>
			<path style="clip-path:url(#SVGID_00000155866912834879835510000004066962711123223693_);fill:#067A96;" d="M280.4,107.4
				c-7.5-15-23.6-20.7-39.4-22.9c7.5-1.6,9.9-2.4,14-4c7.6-3.4,22.6-13,22.6-35.5c0-13-4.9-21.1-8.4-25.5
				c-11.8-15.7-31-17.9-49-18.6c-4.4-0.3-9.1-0.3-13.8-0.3h-61.7c-5.3,0-9.7,4.3-9.7,9.6v33.3v32.6v60.5V164c0,5.3,4.3,9.6,9.6,9.6
				h19.2h51.8c16.7,0,33.5-1.2,47.7-10.8c18.2-12,20.7-29.9,20.7-37.5C284.3,116.8,281.9,110.4,280.4,107.4L280.4,107.4z
				 M182.1,36.4h30.3c4,0,6.2,0.4,8,1c8.6,2.8,9.2,9.9,9.2,12.9c0,3.2-0.8,5.5-1.2,6.5c-1.2,3.2-3.8,6.7-11.8,8.1
				c-2.8,0.4-7.8,0.6-8,0.6h-26.5L182.1,36.4L182.1,36.4L182.1,36.4z M230.4,132.1c-4.6,4.8-10.8,6.1-23.3,6.1h-24.5v-33.9h30.5
				c6,0,8.8,0.4,11.4,1.4c4,1.4,9.8,5.4,9.8,15.7C234.2,127.1,232,130.3,230.4,132.1L230.4,132.1z"/>
			<path style="clip-path:url(#SVGID_00000155866912834879835510000004066962711123223693_);fill:#067A96;" d="M97.1,134.8H71.8
				c-1.9-0.1-3.9-0.1-5.9-0.1h-19l0,0V87.4l0,0h0.2V23.6c0-12.7-10.5-23.1-23.6-23.1c-2.7,0-5.2,0.4-7.6,1.2C6.7,4.9,0,13.5,0,23.6
				v63.7l0,0V116v4.8v40.5c0,7.1,5.9,12.9,13.2,12.9h13.6H56h4.4h36.6c8.2,0,15.2-4.8,18.3-11.6c1.1-2.5,1.8-5.2,1.8-8.1
				C117.2,143.6,108.2,134.8,97.1,134.8L97.1,134.8z"/>
		</g>
	</g>
	<path class="st2" d="M308.8,64.5c6.9,24.3,24,44.7,46.8,56.9c1,0.5,2,1,3,1.5c0.2,0.1,0.5,0.2,0.8,0.3
		c-5.6-6.2-10.3-15.4-11.9-29.5c-0.6-5-0.6-8.8-0.5-10.8c0.4-21.9,9.8-35,16.9-40.9c9.8-8.4,21.1-9.1,25.9-9
		c8.5,0.2,16.8,3.2,23.3,8.4c2,1.6,3.8,3.5,5.6,5.3c0-0.1-0.1-0.2-0.2-0.2c0.1,0.2,0.3,0.3,0.4,0.5c3.6,3.8,7.4,7.3,13.2,8.1
		c0.7,0.1,1.4,0.1,2.1,0.2c6.8,0.1,12.8-3.2,16.1-8.2c1.7-2.6,2.7-5.6,2.8-8.8c0.1-3.2-1-6.3-2.7-9.2c-0.2-0.3-0.6-1-0.7-1.1
		c-5-7.5-14.6-13.5-21.6-17.3c-12-6.5-25.7-10-39.5-10.3c-34.7-0.6-54.3,17.5-62.2,26.3c-1.1,1.2-2.2,2.5-3.2,3.7
		c-6,7.4-10.1,15.1-12.8,22.3c-1,2.7-1.9,5.3-2.5,7.8C308,61.7,308.4,63.1,308.8,64.5L308.8,64.5z"/>
	<path class="st3" d="M452.1,132.7c-0.3-0.9-0.8-1.8-1.2-2.7c-3.2-5.5-9.6-9.3-17-9.3c-1,0-1.9,0.1-2.9,0.2
		c-5.5,0.7-8.9,3.6-12.1,6.7c-0.6,0.6-1.1,1.3-1.8,1.9c0.1-0.2,0.2-0.3,0.4-0.5c-1.9,1.9-3.7,3.8-6,5.4c-6.8,4.8-15.1,7.1-23.7,7.1
		c-4.4,0-8.2-0.6-11.3-1.4l0,0l0,0v0.1c-6.9-1.7-13.5-4.1-19.7-7.1c-1-0.5-2.1-1-3.1-1.5c-23.3-12-40.9-32.1-47.9-56
		c-0.6-2.1-1.1-4.2-1.6-6.3c-2.4,9.4-2.7,17.2-2.7,21.8c0,6.9,0.7,24.3,9.3,41.4c1.8,2.7,3.4,5.5,4.9,8.4
		c7.1,10.5,17.8,20.3,33.8,26.8c10,4,19.7,5.6,26.9,6.3c3.6,0.3,6.5,0.4,8.6,0.4c14.6,0,29-3.4,41.7-10
		c10.8-5.5,26.3-13.6,26.3-26.4C453,136.1,452.7,134.4,452.1,132.7L452.1,132.7z"/>
	<g>
		<path class="st3" d="M515.8,33.9h5.1v40.7h-5.1V33.9z"/>
		<path class="st3" d="M530.3,45.8h4.4l0.2,4.6c2.4-3.3,5.7-5,9.8-5c3.7,0,6.8,1.2,9.1,3.6c2.3,2.4,3.5,5.6,3.5,9.7v15.9h-4.8V58.8
			c0-2.8-0.8-5-2.3-6.6s-3.7-2.4-6.4-2.4c-2.6,0-4.7,0.9-6.4,2.7c-1.6,1.8-2.5,4-2.5,6.6v15.4h-4.7V45.8L530.3,45.8z"/>
		<path class="st3" d="M565.6,45.8h4.4l0.2,4.6c2.4-3.3,5.7-5,9.8-5c3.7,0,6.8,1.2,9.1,3.6c2.3,2.4,3.5,5.6,3.5,9.7v15.9h-4.8V58.8
			c0-2.8-0.8-5-2.3-6.6s-3.7-2.4-6.4-2.4c-2.6,0-4.7,0.9-6.4,2.7c-1.6,1.8-2.5,4-2.5,6.6v15.4h-4.7V45.8L565.6,45.8z"/>
		<path class="st3" d="M603.3,49.4c2.8-2.8,6.4-4.2,10.7-4.2c4.4,0,8,1.4,10.7,4.2c2.8,2.8,4.2,6.4,4.2,10.9c0,4.3-1.4,7.9-4.2,10.7
			c-2.8,2.8-6.4,4.2-10.7,4.2c-4.3,0-7.9-1.4-10.7-4.2c-2.8-2.8-4.2-6.3-4.2-10.7C599.1,55.9,600.5,52.3,603.3,49.4z M621.3,52.6
			c-1.9-2-4.4-3-7.3-3c-2.9,0-5.4,1-7.3,3c-1.9,2-2.9,4.6-2.9,7.7c0,3,0.9,5.5,2.8,7.4c1.9,1.9,4.3,2.9,7.3,2.9c2.9,0,5.4-1,7.3-2.9
			c1.9-1.9,2.9-4.4,2.9-7.4C624.2,57.1,623.2,54.6,621.3,52.6z"/>
		<path class="st3" d="M636.9,45.9l4.7,11.2l4.9,12.4l4.8-12.4l4.7-11.3h5.2l-12.1,28.8h-5.2l-12.1-28.8H636.9z"/>
		<path class="st3" d="M689.4,74.7l-0.1-5.2c-1.1,1.9-2.6,3.3-4.5,4.3c-1.9,1-4,1.5-6,1.5c-4.2,0-7.7-1.4-10.5-4.1
			c-2.8-2.7-4.2-6.4-4.2-11c0-4.5,1.4-8.1,4.2-10.8c2.8-2.7,6.3-4,10.5-4c2.2,0,4.3,0.5,6.2,1.5s3.4,2.4,4.4,4.2l0.1-5.2h4.6v28.7
			h-4.6L689.4,74.7z M678.9,49.9c-2.9,0-5.3,1-7.3,2.9c-2,1.9-3,4.4-3,7.6c0,3.1,1,5.7,3,7.6c2,1.9,4.4,2.9,7.3,2.9
			c1.9,0,3.6-0.4,5.1-1.2c1.5-0.8,2.6-1.8,3.4-3c0.8-1.2,1.3-2.6,1.7-4.1c0.3-1.5,0.3-3,0-4.5c-0.3-1.5-0.9-2.9-1.7-4.1
			c-0.8-1.2-1.9-2.2-3.4-3C682.6,50.3,680.9,49.9,678.9,49.9L678.9,49.9z"/>
		<path class="st3" d="M710.9,45.9h8.9V50h-8.9v15.2c0,3.7,1.5,5.5,4.5,5.5c1.3,0,2.6-0.3,4-1l1.4,4c-1.9,0.9-3.8,1.4-5.6,1.4
			c-6,0.1-9.1-3.2-9.1-9.8V50h-5.8v-4.1h5.8V38l4.8-0.5V45.9z"/>
		<path class="st3" d="M726.8,34.3c1-0.5,2.1-0.5,3.1,0c1,0.5,1.6,1.5,1.6,2.8c0,1.3-0.5,2.2-1.6,2.8c-1,0.5-2.1,0.5-3.1,0
			c-1-0.5-1.6-1.5-1.6-2.8C725.2,35.8,725.7,34.9,726.8,34.3z M725.9,74.6h4.8V45.8h-4.8V74.6z"/>
		<path class="st3" d="M741.8,45.9l4.7,11.2l4.9,12.4l4.8-12.4l4.7-11.3h5.2L754,74.6h-5.2l-12.1-28.8H741.8z"/>
		<path class="st3" d="M796.4,70c-1.4,1.7-3.2,2.9-5.5,3.8c-2.2,0.9-4.6,1.3-6.9,1.3c-4.5,0-8.1-1.4-10.9-4.1
			c-2.8-2.7-4.2-6.4-4.2-10.9c0-4.3,1.4-7.9,4.2-10.7c2.8-2.8,6.4-4.2,10.7-4.2c4.7,0,8.3,1.4,11.1,4.3c2.7,2.9,3.8,7.1,3.3,12.5
			h-24.4c0.3,2.6,1.4,4.7,3.3,6.2c1.9,1.6,4.3,2.4,7.1,2.4c1.7,0,3.4-0.3,5.1-1c1.7-0.6,3.1-1.5,4-2.6L796.4,70L796.4,70z
			 M793.6,58.1c-0.1-2.8-1-4.9-2.8-6.4c-1.7-1.5-4-2.2-6.9-2.2c-2.6,0-4.8,0.8-6.7,2.3s-3,3.6-3.4,6.3L793.6,58.1L793.6,58.1z"/>
	</g>
	<g>
		<path class="st3" d="M511.3,105v-4.5h32.8v4.5h-13.9v36.2h-5V105H511.3z"/>
		<path class="st3" d="M547.8,112.4l0.3,4.3c1.7-3.2,4.7-4.8,8.8-4.8c2.5-0.1,4.7,0.6,6.7,2.2l-2.2,4.1c-1.5-1-3.2-1.6-5-1.6
			c-2.4,0-4.4,0.8-6,2.4c-1.6,1.6-2.4,3.6-2.4,6.2v16h-4.8v-28.7L547.8,112.4L547.8,112.4z"/>
		<path class="st3" d="M590.9,141.3l-0.1-5.2c-1.1,1.9-2.6,3.3-4.5,4.3c-1.9,1-4,1.5-6,1.5c-4.2,0-7.7-1.4-10.5-4.1
			c-2.8-2.7-4.2-6.4-4.2-11c0-4.5,1.4-8.1,4.2-10.8c2.8-2.7,6.3-4,10.6-4c2.2,0,4.3,0.5,6.2,1.5c1.9,1,3.4,2.4,4.4,4.2l0.1-5.2h4.7
			v28.7H591L590.9,141.3z M580.4,116.5c-2.9,0-5.3,1-7.3,2.9c-2,1.9-3,4.4-3,7.6c0,3.1,1,5.7,3,7.6c2,1.9,4.4,2.9,7.3,2.9
			c1.9,0,3.6-0.4,5.1-1.2c1.5-0.8,2.6-1.8,3.4-3c0.8-1.2,1.3-2.6,1.7-4.1c0.3-1.5,0.3-3,0-4.5c-0.3-1.5-0.9-2.9-1.7-4.1
			c-0.8-1.2-1.9-2.2-3.4-3C584.1,116.8,582.4,116.4,580.4,116.5L580.4,116.5z"/>
		<path class="st3" d="M604.3,112.4h4.4l0.2,4.6c2.4-3.3,5.7-5,9.8-5c3.7,0,6.8,1.2,9.1,3.6c2.3,2.4,3.5,5.6,3.5,9.7v15.9h-4.8
			v-15.8c0-2.8-0.8-5-2.3-6.6c-1.6-1.6-3.7-2.4-6.4-2.4c-2.6,0-4.7,0.9-6.4,2.7c-1.6,1.8-2.5,4-2.5,6.6v15.4h-4.7V112.4L604.3,112.4
			z"/>
		<path class="st3" d="M658.1,118.8c-2.1-1.9-4.7-2.8-8.1-2.8c-2.1,0-3.8,0.3-5.1,1c-1.3,0.7-2,1.8-1.9,3.1c0,2.3,2.4,3.7,7.2,4.2
			c1.4,0.2,2.5,0.3,3.3,0.5c0.9,0.2,1.9,0.4,3.2,0.8c1.2,0.4,2.2,0.9,2.9,1.5c0.7,0.6,1.3,1.4,1.9,2.4c0.5,1,0.8,2.2,0.8,3.6
			c0,2.8-1.2,4.9-3.5,6.4c-2.3,1.5-5.1,2.2-8.5,2.2c-5.7,0-10-1.8-12.9-5.4l2.7-3.3c2.4,2.9,5.8,4.4,10.2,4.4c1.9,0,3.6-0.3,5-1
			c1.5-0.7,2.2-1.8,2.2-3.4c0-1.4-0.6-2.5-1.9-3.1c-1.3-0.7-3.3-1.1-5.8-1.5c-1.6-0.2-3-0.4-4.2-0.8c-1.2-0.3-2.3-0.8-3.5-1.3
			c-1.2-0.6-2.1-1.4-2.8-2.4s-1-2.3-1-3.8c0-1.9,0.6-3.6,1.8-4.9c1.2-1.3,2.6-2.2,4.3-2.8c1.7-0.5,3.5-0.8,5.5-0.8
			c4.5,0,8.1,1.3,10.9,3.8L658.1,118.8L658.1,118.8z"/>
		<path class="st3" d="M671.8,141.2V117h-5.6v-4.2h5.6v-2.3c0-3.3,0.9-5.9,2.6-7.7c1.7-1.8,4.1-2.7,7.1-2.7c2.3,0,4.5,0.7,6.5,2.1
			l-2,3.5c-1.6-1-3.1-1.5-4.4-1.5c-3.4,0-5.1,2.1-5.1,6.2v2.3h9v4.2h-9v24.2L671.8,141.2L671.8,141.2z"/>
		<path class="st3" d="M692.6,116c2.8-2.8,6.4-4.2,10.7-4.2c4.4,0,8,1.4,10.8,4.2c2.8,2.8,4.2,6.4,4.2,10.9c0,4.3-1.4,7.9-4.2,10.7
			c-2.8,2.8-6.4,4.2-10.7,4.2c-4.3,0-7.9-1.4-10.7-4.2c-2.8-2.8-4.2-6.3-4.2-10.7C688.3,122.4,689.7,118.8,692.6,116z M710.5,119.1
			c-1.9-2-4.4-3-7.3-3c-2.9,0-5.4,1-7.3,3c-1.9,2-2.9,4.6-2.9,7.7c0,3,1,5.5,2.8,7.4c1.9,1.9,4.3,2.9,7.3,2.9c2.9,0,5.4-1,7.3-2.9
			c1.9-1.9,2.9-4.4,2.9-7.4C713.5,123.7,712.5,121.1,710.5,119.1z"/>
		<path class="st3" d="M729.5,112.4l0.3,4.3c1.7-3.2,4.7-4.8,8.8-4.8c2.5-0.1,4.7,0.6,6.7,2.2l-2.2,4.1c-1.5-1-3.2-1.6-5-1.6
			c-2.4,0-4.4,0.8-6,2.4c-1.6,1.6-2.4,3.6-2.4,6.2v16H725v-28.7L729.5,112.4L729.5,112.4z"/>
		<path class="st3" d="M749.9,112.5h4.4l0.3,4.2c0.8-1.6,2-2.8,3.5-3.5c1.5-0.8,3.2-1.2,5-1.2c2.2,0,4.1,0.5,5.9,1.5
			c1.7,1,3,2.6,3.8,4.8c1-2.1,2.4-3.7,4.2-4.7c1.8-1,3.8-1.6,5.9-1.6c3.8,0,6.7,1.1,8.9,3.4s3.2,5.4,3.2,9.4v16.4h-4.8v-16.4
			c0-2.4-0.7-4.4-2-6c-1.3-1.6-3.1-2.4-5.4-2.4c-2.3,0-4.2,0.8-5.7,2.4c-1.5,1.6-2.2,3.6-2.2,6v16.3h-4.8v-16.3c0-2.4-0.7-4.4-2.1-6
			c-1.4-1.6-3.3-2.4-5.6-2.4s-4.2,0.8-5.6,2.4c-1.4,1.6-2.2,3.6-2.2,6v16.3h-4.8L749.9,112.5L749.9,112.5z"/>
		<path class="st3" d="M827,141.3l-0.1-5.2c-1.1,1.9-2.6,3.3-4.5,4.3c-1.9,1-4,1.5-6,1.5c-4.2,0-7.7-1.4-10.5-4.1
			c-2.8-2.7-4.2-6.4-4.2-11c0-4.5,1.4-8.1,4.2-10.8c2.8-2.7,6.3-4,10.6-4c2.2,0,4.3,0.5,6.2,1.5c1.9,1,3.4,2.4,4.4,4.2l0.1-5.2h4.7
			v28.7h-4.6L827,141.3z M816.5,116.5c-2.9,0-5.3,1-7.3,2.9c-2,1.9-3,4.4-3,7.6c0,3.1,1,5.7,3,7.6c2,1.9,4.4,2.9,7.3,2.9
			c1.9,0,3.6-0.4,5.1-1.2c1.5-0.8,2.6-1.8,3.4-3c0.8-1.2,1.3-2.6,1.7-4.1c0.3-1.5,0.3-3,0-4.5c-0.3-1.5-0.9-2.9-1.7-4.1
			c-0.8-1.2-1.9-2.2-3.4-3C820.1,116.8,818.5,116.4,816.5,116.5L816.5,116.5z"/>
		<path class="st3" d="M848.5,112.5h8.9v4.1h-9v15.2c0,3.7,1.5,5.5,4.5,5.5c1.3,0,2.6-0.3,4-1l1.4,4c-1.9,0.9-3.8,1.4-5.6,1.4
			c-6,0.1-9.1-3.2-9.1-9.8v-15.2h-5.8v-4.1h5.8v-7.9l4.8-0.5V112.5z"/>
		<path class="st3" d="M864.3,100.9c1-0.5,2.1-0.5,3.1,0c1,0.5,1.6,1.5,1.6,2.8c0,1.3-0.5,2.2-1.6,2.8c-1,0.5-2.1,0.5-3.1,0
			c-1-0.5-1.6-1.5-1.6-2.8C862.8,102.3,863.3,101.4,864.3,100.9z M863.5,141.1h4.8v-28.8h-4.8V141.1z"/>
		<path class="st3" d="M879.3,116c2.8-2.8,6.4-4.2,10.7-4.2c4.4,0,8,1.4,10.8,4.2c2.8,2.8,4.2,6.4,4.2,10.9c0,4.3-1.4,7.9-4.2,10.7
			c-2.8,2.8-6.4,4.2-10.7,4.2c-4.3,0-7.9-1.4-10.7-4.2c-2.8-2.8-4.2-6.3-4.2-10.7C875.1,122.4,876.5,118.8,879.3,116z M897.3,119.1
			c-1.9-2-4.4-3-7.3-3c-2.9,0-5.4,1-7.3,3c-1.9,2-2.9,4.6-2.9,7.7c0,3,1,5.5,2.8,7.4s4.3,2.9,7.3,2.9c2.9,0,5.4-1,7.3-2.9
			c1.9-1.9,2.9-4.4,2.9-7.4C900.2,123.7,899.2,121.1,897.3,119.1z"/>
		<path class="st3" d="M911.8,112.4h4.4l0.2,4.6c2.4-3.3,5.7-5,9.8-5c3.7,0,6.8,1.2,9.1,3.6s3.5,5.6,3.5,9.7v15.9H934v-15.8
			c0-2.8-0.8-5-2.3-6.6c-1.6-1.6-3.7-2.4-6.4-2.4c-2.6,0-4.7,0.9-6.4,2.7c-1.6,1.8-2.5,4-2.5,6.6v15.4h-4.7V112.4L911.8,112.4z"/>
	</g>
</g>
</svg>
